<?xml version="1.0" standalone="no"?>
<!DOCTYPE svg PUBLIC "-//W3C//DTD SVG 1.1//EN" "http://www.w3.org/Graphics/SVG/1.1/DTD/svg11.dtd" >
<svg xmlns="http://www.w3.org/2000/svg">
<metadata>Generated by IcoMoon</metadata>
<defs>
<font id="icomoon" horiz-adv-x="1024">
<font-face units-per-em="1024" ascent="960" descent="-64" />
<missing-glyph horiz-adv-x="1024" />
<glyph unicode="&#x20;" d="" horiz-adv-x="512" />
<glyph unicode="&#xe600;" d="M63.46 384.656h988.615l-340.245-340.322c-24.809-24.731-24.809-64.938 0-89.669 24.731-24.809 64.938-24.809 89.669 0l448.656 448.656c2.955 2.8 5.522 6.066 7.933 9.566 1.089 1.633 1.711 3.266 2.722 4.977 1.011 1.944 2.178 3.889 3.111 5.833 0.933 2.255 1.478 4.433 1.944 6.688 0.544 1.633 1.322 3.344 1.555 5.211 1.011 4.122 1.4 8.321 1.4 12.443v0c0 0 0 0 0 0.233 0 4.044-0.389 8.088-1.4 12.132-0.311 1.866-1.011 3.655-1.555 5.522-0.7 2.1-1.167 4.355-1.944 6.377-0.933 2.022-2.178 4.122-3.189 6.299-1.011 1.478-1.633 3.033-2.644 4.511-2.333 3.577-4.9 6.844-8.010 9.877l-448.578 448.501c-24.731 24.731-64.938 24.731-89.669 0s-24.731-65.016 0-89.747l340.245-340.245h-988.615c-34.997-0.078-63.46-28.464-63.46-63.46s28.464-63.383 63.46-63.383z" horiz-adv-x="1269" />
<glyph unicode="&#xe601;" d="M380.468 385.679c-101.975 0-184.964 82.672-184.964 184.329s82.989 184.329 184.964 184.329c101.975 0 184.9-82.672 184.9-184.329s-82.926-184.329-184.9-184.329zM380.468 688.809c-65.845 0-119.436-53.273-119.436-118.801s53.591-118.801 119.436-118.801c65.845 0 119.372 53.273 119.372 118.801s-53.527 118.801-119.372 118.801zM380.468-64l-24.192 26.224c-107.118 116.261-356.276 408.787-356.276 613.943 0 211.632 170.677 383.833 380.468 383.833 209.727 0 380.405-172.201 380.405-383.833 0-203.187-249.222-496.92-356.276-613.879l-24.128-26.287zM380.468 894.472c-173.662 0-314.94-142.739-314.94-318.305 0-141.469 158.359-368.15 314.813-542.891 156.518 175.757 315.004 402.882 315.004 542.891 0 175.566-141.279 318.305-314.877 318.305z" horiz-adv-x="761" />
<glyph unicode="&#xe602;" d="M853.572 606.995h-614.618c-18.77 0-34.127-15.766-34.127-35.355 0-19.452 15.357-35.287 34.127-35.287h614.618c18.838 0 34.127 15.766 34.127 35.287 0 19.589-15.289 35.355-34.127 35.355zM990.146 960h-887.767c-56.513 0-102.38-47.436-102.38-105.929v-597.896c0-58.425 45.866-105.86 102.38-105.86h136.438l-0.137-149.406c9.828-43.887 59.244-96.373 140.26-41.225l204.827 190.699h406.378c56.582 0 102.448 47.368 102.448 105.86v597.896c0 58.425-45.866 105.86-102.448 105.86zM1024.273 291.53c0-38.972-30.577-70.642-68.253-70.642h-393.752l-226.463-207.899c-38.358-49.142-27.984 79.378-27.984 135.073h-0.546v72.758h-170.701c-37.744 0.068-68.321 31.738-68.321 70.71v527.255c0 39.041 30.577 70.574 68.321 70.574h819.446c37.676 0 68.253-31.533 68.253-70.574v-527.255zM853.572 748.143h-614.618c-18.77 0-34.127-15.766-34.127-35.287s15.357-35.355 34.127-35.355h614.618c18.838 0 34.127 15.766 34.127 35.355 0 19.52-15.289 35.287-34.127 35.287zM614.55 465.848h-375.596c-18.77 0-34.127-15.766-34.127-35.355 0-19.452 15.357-35.355 34.127-35.355h375.596c18.838 0 34.127 15.835 34.127 35.355s-15.289 35.355-34.127 35.355z" horiz-adv-x="1093" />
<glyph unicode="&#xe603;" d="M571.894 348.385l-129.719 388.705h58.193l35.659 217.529-32.916 5.382-31.11-189.543h-372.177l-31.076 187.946-32.95-5.486 35.728-215.827h58.366l-129.892-388.705 6.528-7.257c109.893-121.733 227.32-262.215 229.334-388.705l0.243-16.388h99.928l-0.035 16.701c-0.208 123.712 113.191 259.68 229.334 388.392l6.562 7.257zM304.506-19.314l0.035 324.297c18.437 7.361 31.457 25.347 31.457 46.422 0.035 27.638-22.395 50.033-50.033 50.068-27.638 0-50.068-22.395-50.068-50.068 0-22.43 14.895-41.249 35.242-47.568v-334.401l-2.708-0.035c-10.798 130.517-123.052 267.284-230.584 386.83l127.184 380.858h241.938l127.080-380.858c-109.962-122.184-215.48-251.035-229.542-375.545z" horiz-adv-x="572" />
<glyph unicode="&#xe604;" d="M3.737 78.371c-19.743 82.583 37.679 308.284 223.895 530.871 174.009 208.325 308.657 321.549 411.605 346.212 81.15 19.369 133.216-27.341 161.179-52.502l6.913-6.103c31.7-27.465 51.817-77.413 56.488-97.218 8.283-34.877-8.532-54.37-24.164-67.386-12.954-11.023-131.846-105.377-147.353-115.902-23.23-15.819-61.283-21.549-89.994 3.363l-4.858 4.297c-13.888 12.456-39.797 35.499-64.023 33.756-11.709-0.81-22.67-7.411-33.444-20.241-53.436-63.837-207.578-263.754-227.009-297.883-15.009-26.656-11.397-54.868 9.031-69.94 21.113-15.632 32.821-21.922 32.884-21.922 4.235-2.865 19.867-15.196 25.846-40.046 4.235-17.874 2.491-37.679-5.356-58.543-20.365-54.245-65.829-176.625-65.829-176.625-9.155-18.31-37.804-45.838-86.569-33.506-50.633 12.767-161.055 63.712-179.24 139.319zM827.633 790.911c-4.048 17.189-21.362 57.609-44.654 77.787l-7.411 6.602c-26.157 23.355-65.58 58.792-127.735 44.032-94.852-22.857-223.023-132.095-391.738-333.943-184.347-220.407-231.867-433.341-216.235-498.361 13.266-55.242 105.564-100.021 152.087-111.916 30.517-7.66 41.79 9.093 43.72 12.58 0 0.374 44.592 120.76 64.771 174.57 5.169 13.951 6.539 26.282 3.986 36.807-2.491 10.712-8.345 16.317-9.529 17.376-0.498 0.062-13.515 7.349-35.063 23.293-34.877 25.846-43.222 75.67-19.182 118.207 21.86 38.613 180.86 243.824 230.87 303.488 17.251 20.677 37.243 31.949 59.352 33.506 39.859 2.74 73.303-27.216 91.302-43.097l4.546-4.11c16.442-14.262 37.804-5.294 44.717-0.561 13.016 8.844 130.725 102.138 144.302 113.536 11.273 9.466 15.445 15.819 11.895 30.206z" horiz-adv-x="866" />
<glyph unicode="&#xe605;" d="M409.6 217.6l307.2 230.4-307.2 230.4v-460.8zM512 960c-282.88 0-512-229.12-512-512s229.12-512 512-512 512 229.12 512 512-229.12 512-512 512zM512 38.4c-225.792 0-409.6 183.808-409.6 409.6s183.808 409.6 409.6 409.6c225.792 0 409.6-183.808 409.6-409.6s-183.808-409.6-409.6-409.6z" />
<glyph unicode="&#xe606;" d="M1020.131 78.168c-46.3 119.686-124.756 147.706-187.868 158.714-52.771 9.34-104.275 28.554-127.558 41.029 0 87.463-1.801 81.058-0.4 107.477 49.369 65.981 79.323 152.176 79.323 232.033 0 208.082-106.476 342.579-271.127 342.579-164.718 0-271.127-134.496-271.127-342.579 0-79.39 29.755-165.185 78.656-231.099 0.133-19.747 0.4-98.938-0.334-108.478-23.35-12.476-74.787-31.689-127.358-40.896-63.179-11.008-141.635-39.095-187.868-158.714-7.872-20.415-5.137-42.364 7.739-60.51 47.501-67.515 298.214-81.725 500.091-81.725 201.945 0 452.658 14.21 500.225 81.725 12.676 18.080 15.411 40.162 7.605 60.443zM309.889 617.421c0 132.428 53.171 273.996 202.612 273.996s202.678-141.568 202.678-273.996c0-80.524-40.229-171.856-98.137-226.162-30.956-28.887-66.581-47.834-104.542-47.834-37.694 0-73.319 18.813-104.141 47.567-58.108 54.239-98.471 145.771-98.471 226.429zM512.233 0.846c-390.746 0-444.318 52.304-446.053 54.306 35.892 92.933 89.931 109.612 137.765 117.951 56.374 9.874 115.483 30.889 147.239 47.768l31.423 16.679c0 0 1.468 64.98 1.868 83.193 37.961-28.42 81.392-45.833 128.092-45.833 46.5 0 89.664 17.212 127.425 45.366 0.267-19.347 1.401-82.125 1.401-82.125l31.556-17.012c31.289-16.879 90.532-37.961 147.639-48.034 47.834-8.339 101.873-25.085 138.166-117.818-2.202-2.135-55.773-54.439-446.52-54.439z" />
<glyph unicode="&#xe607;" d="M376.735 622.555c12.329 28.956 24.505 55.712 34.942 83.082 5.781 15.041 12.022 29.161 25.221 38.881 111.731 82.571 231.597 149.436 365.685 188.675 69.781 20.361 140.943 30.849 213.691 25.324 24.045-1.842 47.834-7.776 71.623-12.022 9.106-1.637 15.808-6.344 18.059-16.064 2.149-9.413-2.507-15.604-8.953-21.384-104.262-93.57-185.861-204.636-251.447-327.827-29.621-55.508-53.666-113.369-69.474-174.452-6.037-23.277-23.533-34.737-45.276-40.211-36.886-9.311-73.976-17.855-110.964-26.705-3.223-0.767-6.293-1.893-12.534-3.837 16.627-5.832 30.235-10.641 43.843-15.348 28.547-10.027 35.658-36.016 16.013-59.396-56.224-66.66-119.149-126.209-188.777-178.75-34.225-25.784-70.855-47.68-113.317-57.042-79.143-17.394-150.663-3.274-211.031 53.871-4.042 3.888-8.39 7.418-13.557 11.767-3.121-3.888-5.934-7.213-8.441-10.692-31.77-44.457-63.488-88.914-95.207-133.372-5.321-7.572-11.869-12.585-21.64-10.385-8.544 1.688-15.041 6.855-15.194 15.45-0.102 6.19 2.098 13.404 5.627 18.468 33.356 47.373 67.070 94.644 101.141 141.506 4.809 6.702 5.269 11.204 1.586 18.673-22.152 46.555-30.491 95.821-25.58 147.185 9.618 99.914 57.094 182.484 121.4 256.051 34.072 39.086 72.595 74.385 109.941 110.555 21.947 21.231 50.085 12.841 59.191-16.371 0.307-0.921 1.074-1.791 3.428-5.627zM138.641 157.775c2.353 1.791 3.376 2.404 4.042 3.223 2.2 2.609 4.246 5.218 6.293 7.878 160.895 210.775 343.533 400.269 552.313 564.182 27.984 21.998 56.377 43.383 84.668 64.972 7.93 6.088 16.473 7.060 24.812 1.023 8.083-5.832 9.669-14.529 6.088-23.022-2.046-4.758-6.855-8.748-11.204-12.022-145.496-108.713-281.784-227.658-406.101-360.262-81.292-86.561-157.57-177.42-229.244-272.166-3.223-4.195-6.855-7.213-1.228-12.994 49.113-50.545 108.099-70.037 177.522-57.247 36.425 6.804 68.297 23.994 97.867 45.378 68.502 49.675 129.637 107.434 185.094 171.281 1.535 1.791 2.456 4.093 3.99 6.702-5.73 2.098-10.59 3.99-15.501 5.679-28.547 9.976-57.094 19.901-85.589 29.826-9.618 3.376-16.371 9.055-15.808 20.361 0.563 10.999 6.702 16.934 17.241 18.878 2.149 0.409 4.246 1.279 6.446 1.791 59.498 14.222 118.945 28.598 178.494 42.616 11.715 2.763 18.059 8.799 21.538 20.975 7.469 26.142 15.706 52.233 25.784 77.455 61.289 152.863 152.556 285.826 268.278 402.417 2.967 2.967 5.73 6.139 8.646 9.157-0.409 1.074-0.767 2.2-1.125 3.325-21.845 1.279-43.69 3.837-65.535 3.53-52.131-0.512-103.29-9.106-153.528-23.073-123.242-34.225-233.95-93.775-338.059-166.83-17.496-12.227-31.565-25.017-39.648-47.322-16.473-45.532-38.318-89.17-58.014-133.525-5.679-12.892-13.506-18.724-23.329-16.729-11.715 2.302-15.706 10.897-17.445 21.845-2.814 18.161-6.446 36.221-9.874 55.354-2.711-1.586-4.144-2.149-5.167-3.070-58.424-52.438-113.113-108.15-154.142-175.834-36.067-59.6-59.549-123.038-56.070-193.995 1.33-27.012 7.776-53.001 17.496-79.757z" horiz-adv-x="1106" />
<glyph unicode="&#xe608;" d="M353.394 384.557l-334.836-340.302c-24.744-24.744-24.744-64.881 0-89.625 24.744-24.816 65.025-24.816 89.769 0l448.557 448.557c2.877 2.949 5.467 6.186 7.912 9.639 1.007 1.511 1.654 3.309 2.589 4.891 1.151 2.014 2.302 3.884 3.093 5.97 0.935 2.158 1.511 4.388 2.086 6.618 0.575 1.798 1.295 3.453 1.582 5.251 0.791 4.172 1.295 8.344 1.295 12.516v0c0 0 0 0 0 0.072 0 4.1-0.504 8.2-1.295 12.228-0.288 2.014-1.007 3.74-1.582 5.611-0.719 2.086-1.151 4.172-2.014 6.258-0.791 2.23-2.086 4.244-3.237 6.33-0.935 1.511-1.654 3.093-2.446 4.604-2.518 3.453-5.107 6.761-8.128 9.639l-448.414 448.557c-24.744 24.816-65.025 24.816-89.769 0.072-24.744-24.816-24.744-64.953 0-89.769l334.836-340.23 63.371-63.371-63.371-63.514z" horiz-adv-x="575" />
<glyph unicode="&#xe609;" d="M832.024 832v63.976c0 35.352-28.672 64.024-64.024 64.024h-512c-35.352 0-63.976-28.672-63.976-64.024v-64.024c-106.057 0.049-192.024-93.086-192.024-207.97s85.967-208.018 192.024-208.018c2.146 0 4.242 0.244 6.388 0.341 27.453-136.046 141.166-240.786 281.6-254.732v-161.597h-128c-17.652 0-31.988-14.287-31.988-31.988 0-17.652 14.287-31.988 31.988-31.988h320.024c17.652 0 31.988 14.336 31.988 31.988 0 17.701-14.336 31.988-31.988 31.988h-128v161.597c140.434 13.946 254.147 118.686 281.6 254.732 2.146-0.098 4.242-0.341 6.388-0.341 106.057 0 192.024 93.135 192.024 208.018s-86.016 208.018-192.024 208.018zM192.024 479.988c-70.705 0-128 64.463-128 143.994s57.295 143.994 128 143.994v-287.988zM768 488.375c0-145.993-114.639-264.387-256-264.387s-256 118.394-256 264.387v343.625c0 35.352 28.623 64.024 64.024 64.024h384c35.352 0 64.024-28.672 64.024-64.024v-343.625zM832.024 479.988v287.988c70.656 0 128-64.463 128-143.994s-57.344-143.994-128-143.994z" />
<glyph unicode="&#xe60a;" d="M391.014 65.434v-65.434h32.563c18.022 0 32.614-14.336 32.614-32s-14.643-32-32.666-32h-130.253c-18.022 0-32.614 14.336-32.614 32s14.592 32 32.614 32h32.563v65.434c-160.87 14.285-297.062 133.018-325.837 286.566h65.126c29.696-128.205 153.754-224 293.274-224s263.526 95.795 293.274 224h65.126c-28.774-153.549-164.966-272.282-325.786-286.566zM358.4 192c-125.952 0-228.096 100.301-228.096 224v320c0 123.699 102.144 224 228.096 224s228.045-100.301 228.045-224v-320c0-123.699-102.093-224-228.045-224zM521.318 736c0 88.371-72.96 160-162.918 160s-162.918-71.629-162.918-160v-320c0-88.371 72.909-160 162.918-160 89.958 0 162.918 71.629 162.918 160v320z" horiz-adv-x="717" />
<glyph unicode="&#xe60b;" d="M512 960c-282.778 0-512-229.222-512-512s229.222-512 512-512c282.726 0 512 229.222 512 512s-229.274 512-512 512zM512 0c-247.398 0-448 200.55-448 448s200.602 448 448 448 448-200.602 448-448-200.602-448-448-448zM719.104 471.91l-292.762 162.816c-6.195 3.789-12.39 5.581-18.022 5.581-13.773 0-24.269-10.65-24.269-28.928v-326.349c0-18.278 10.547-28.877 24.269-28.877 5.632 0 11.827 1.792 18.074 5.581l292.352 160.461c27.034 15.36 17.152 40.294 0.358 49.715zM448 346.47v203.11l183.808-102.246-183.808-100.864z" />
<glyph unicode="&#xe60c;" d="M512 743.363c0 13.599-11.018 24.658-24.617 24.658-162.857 0-295.363-132.506-295.363-295.363 0-13.599 11.018-24.658 24.617-24.658s24.617 11.059 24.617 24.658c0 135.7 110.387 246.129 246.129 246.129 13.599-0.041 24.617 11.018 24.617 24.576zM640 448c0 70.738-57.303 128-128 128s-128-57.262-128-128 57.303-128 128-128c70.697 0 128 57.262 128 128zM480.010 448c0 17.695 14.336 31.99 31.99 31.99s31.99-14.336 31.99-31.99-14.336-31.99-31.99-31.99-31.99 14.295-31.99 31.99zM512 960c-282.788 0-512-229.253-512-512s229.212-512 512-512c282.747 0 512 229.253 512 512s-229.253 512-512 512zM512-0.020c-247.439 0-448.020 200.54-448.020 448.020s200.581 447.98 448.020 447.98c247.398 0 448.020-200.54 448.020-448.020s-200.622-447.98-448.020-447.98zM807.404 448c-13.599 0-24.658-11.018-24.658-24.617 0-135.741-110.387-246.17-246.17-246.17-13.599 0-24.617-11.059-24.617-24.617 0-13.599 11.018-24.658 24.617-24.658 162.898 0 295.404 132.506 295.404 295.404 0.041 13.64-11.018 24.658-24.576 24.658z" />
<glyph unicode="&#xe60d;" d="M1024 32.012v831.976c0 53.053-43.008 96.012-96.012 96.012h-831.976c-53.053 0-96.012-42.959-96.012-96.012v-832.024c0-53.004 42.959-95.963 96.012-95.963h832.024c52.955 0 95.963 42.959 95.963 96.012zM64.024 767.976v64.024c0 35.352 28.623 64.024 64.024 64.024h64.024v-128h-128.049zM256 767.976v128h128v-128h-128zM448.024 767.976v128h128v-128h-128zM640 767.976v128h128v-128h-128zM832.024 767.976v128h64.024c35.352 0 64.024-28.672 64.024-64.024v-64.024h-128.049zM64.024 192v512h896v-512h-896zM128-0.024c-35.352 0-64.024 28.672-64.024 64.024v64.024h128v-128h-63.976zM256-0.024v128h128v-128h-128zM448.024-0.024v128h128v-128h-128zM640-0.024v128h128v-128h-128zM832.024-0.024v128h128v-64.024c0-35.352-28.672-64.024-64.024-64.024h-63.976z" />
<glyph unicode="&#xe60e;" d="M602.353 684.363c-145.589 0-263.529-123.482-263.529-275.757 0-152.215 117.941-275.637 263.529-275.637 145.528 0 263.529 123.422 263.529 275.637 0 152.275-118.001 275.757-263.529 275.757zM602.353 211.215c-104.207 0-188.657 88.425-188.657 197.331 0 109.086 84.45 197.391 188.657 197.391 104.147 0 188.657-88.365 188.657-197.391 0-108.905-84.51-197.331-188.657-197.331zM1091.765 802.485c0 0-19.456 0-149.986 0-35.659 0-111.676 157.515-151.492 157.515-97.641 0-279.432 0-376.952 0-39.755 0-115.772-157.515-151.311-157.515-130.048 0-149.082 0-149.082 0-62.404 0-112.941-52.947-112.941-118.182v-630.182c0-65.175 50.537-118.121 112.941-118.121h978.824c62.344 0 112.941 52.947 112.941 118.121v630.182c0 65.235-50.598 118.182-112.941 118.182zM1129.412 93.515c0-43.55-33.732-78.788-75.294-78.788h-903.529c-41.562 0-75.294 35.238-75.294 78.788v551.454c0 43.49 33.732 78.728 75.294 78.728 0 0 39.996 0 149.745 0 34.816 0 110.411 157.576 150.227 157.576 96.617 0 203.716 0 300.514 0 39.695 0 115.29-157.576 150.106-157.576 111.435 0 152.877 0 152.877 0 41.562 0 75.294-35.238 75.294-78.728v-551.454z" horiz-adv-x="1205" />
<glyph unicode="&#xe60f;" d="M287.498-5.762c0 46.875 0 92.542 0 138.138 0 85.298 0.142 170.596-0.142 255.964-0.071 7.315 2.415 10.937 8.807 14.489 46.022 25.426 76.207 64.559 95.667 112.641 8.594 21.307 17.614 42.471 24.787 64.275 11.151 34.020 30.398 62.713 54.758 88.352 11.435 12.074 22.656 24.645 35.44 35.227 43.182 36.008 66.619 83.309 78.977 136.718 6.037 26.207 9.517 53.054 14.418 79.545 4.687 26.065 20.17 40.625 42.897 40.412 12.145-0.071 21.662-5.966 30.113-13.849 16.761-15.554 27.486-35.014 35.653-55.966 16.335-42.045 21.094-85.44 10.937-129.403-3.622-15.483-12.074-30.113-19.957-44.176-12.074-21.449-26.065-41.832-38.565-62.997-6.605-11.151-12.358-22.869-17.045-34.943-8.026-20.312-5.469-27.912 11.932-41.193 16.335-12.571 35.156-16.122 55.397-15.838 44.318 0.497 88.707 1.136 132.883 0 27.202-0.781 54.474-4.119 81.463-7.67 8.736-1.207 17.827-5.753 25.142-11.079 20.596-15.128 35.085-35.298 44.886-58.806 5.469-13.21 6.179-26.775 0.639-39.915-6.96-16.193-14.275-32.244-22.727-47.656-5.753-10.724-5.469-19.673 1.136-29.687 6.96-10.511 13.352-21.449 18.892-32.812 9.446-19.531 8.168-38.778-4.758-56.605-8.452-11.577-17.045-23.011-25.781-34.304-6.179-8.026-8.523-15.98-3.338-25.71 19.105-36.221 14.489-69.673-14.062-98.721-18.821-19.176-23.011-40.625-13.565-64.772 9.73-24.929-2.060-41.477-19.602-56.463-24.148-20.667-53.551-28.835-83.735-35.227-56.747-12.216-113.92-21.378-171.732-25.497-44.389-3.196-87.642 4.545-130.539 14.418-31.747 7.244-63.281 15.838-94.744 24.29-42.969 11.506-87.002 16.264-131.32 18.324-4.19 0.071-8.026 0.355-13.21 0.497zM0 198.712c0 64.63 0 129.261 0 193.962 0.071 25.71 11.719 37.571 37.003 37.571 50.284 0 100.71 0.071 150.922 0 22.656-0.071 35.582-12.784 35.582-35.298 0.071-131.391 0.071-262.641 0-393.961-0.071-22.301-13.352-35.085-35.724-35.085-50.639 0-101.349 0-151.988 0-23.082 0-35.724 12.5-35.724 35.795-0.071 65.625-0.071 131.391-0.071 197.016z" horiz-adv-x="1000" />
<glyph unicode="&#xe610;" d="M739.549 277.354c-39.063 0-75.050-13.349-103.839-35.372l-296.816 178.090c1.415 9.104 2.461 18.332 2.461 27.928 0 9.535-1.046 18.824-2.461 27.928l296.878 178.151c28.79-22.146 64.777-35.433 103.839-35.433 94.181 0 170.646 76.403 170.646 170.646 0 94.304-76.465 170.708-170.708 170.708s-170.646-76.403-170.646-170.646c0-9.474 1.046-18.824 2.461-27.928l-296.878-178.151c-28.79 22.084-64.654 35.433-103.839 35.433-94.243 0-170.646-76.465-170.646-170.708s76.403-170.646 170.646-170.646c39.124 0 75.050 13.288 103.839 35.433l296.878-178.151c-1.415-9.104-2.461-18.393-2.461-27.99 0-94.181 76.403-170.585 170.646-170.585 94.181 0 170.646 76.403 170.646 170.585 0.062 94.304-76.403 170.708-170.646 170.708z" horiz-adv-x="910" />
<glyph unicode="&#xe611;" d="M625.532-63.441c-179.427 0-358.804-0.356-538.18 0.305-31.792 0.102-73.030 28.237-83.695 71.862-5.84 23.869-2.895 48.094-2.996 72.065-0.457 133.009-0.203 266.018-0.203 399.026 0 8.938-0.813 18.029 5.231 25.901 6.348 8.177 14.576 11.325 24.733 11.224 31.233-0.203 62.467 0.305 93.7-0.356 11.427-0.254 15.642 2.742 15.591 14.931-0.457 121.176-0.152 242.351-0.406 363.527-0.152 44.539 20.213 64.955 64.651 64.955 241.386-0.152 482.823-0.051 724.21-0.051 78.109 0 156.218 0.152 234.327 0 32.96-0.051 56.423-24.123 56.474-58.099 0.152-96.544 0-193.14 0-289.684 0-203.551-0.508-407.101 0.406-610.601 0.152-36.312-22.6-65.87-65.616-65.514-176.025 1.473-352.151 0.609-528.226 0.609 0-0.051 0-0.102 0-0.102zM677.74-8.999c0 0 0 0.051 0 0 69.12 0.051 138.24 0.051 207.36 0.051 87.555 0 175.11 0.152 262.716-0.254 11.579-0.051 15.947 2.946 15.236 14.931-0.965 16.048-0.356 32.148-0.356 48.247 0 278.308 0 556.666 0.356 834.974 0 12.443-2.742 16.861-16.302 16.861-310.557-0.406-621.012-0.254-931.569-0.406-24.276 0-21.279 3.2-21.279-21.076-0.102-292.071 0.051-584.091-0.457-876.162 0-15.287 5.18-17.47 18.537-17.42 155.253 0.406 310.506 0.254 465.759 0.254zM139.509 242.443c-0.051 0-0.102 0-0.152 0 0 69.069-0.152 138.138 0.203 207.156 0.051 9.751-2.235 13.408-12.493 13.052-19.857-0.762-39.766-0.762-59.572 0-10.31 0.356-12.697-3.352-12.697-13.052 0.254-136.665 0.152-273.382 0.152-410.098 0-9.548 1.574-18.943 6.247-27.323 8.786-15.947 28.847-24.479 46.012-20.061 19.908 5.18 32.249 21.94 32.249 44.539 0.102 68.612 0.051 137.224 0.051 205.785zM871.743 738.42c41.645 0 83.238 0.102 124.832 0 31.741-0.102 54.798-22.397 55.306-54.087 0.457-28.389 0.254-56.779-0.102-85.117-0.356-29.456-23.362-53.732-52.868-53.935-84.203-0.609-168.356-0.66-252.559-0.152-29.354 0.152-52.564 24.327-53.071 53.884-0.508 29.304-0.406 58.658 0.203 87.962 0.609 28.44 23.362 50.938 52.005 51.243 42.102 0.457 84.153 0.102 126.254 0.102 0 0 0 0.051 0 0.102zM871.134 599.52c38.293 0 76.585 0.152 114.878-0.152 8.329-0.051 11.884 2.031 11.63 11.071-0.559 20.314-0.609 40.68 0 60.994 0.305 10.005-3.2 12.798-13.001 12.747-75.163-0.356-150.327-0.305-225.541-0.051-8.278 0-11.884-1.879-11.63-10.97 0.609-20.314 0.66-40.68 0-60.994-0.305-9.954 3.149-12.95 13.001-12.798 36.921 0.406 73.792 0.102 110.663 0.152zM677.893 462.245c113.558 0 227.115 0.051 340.673-0.051 19.197 0 30.776-8.075 33.011-22.244 3.149-20.010-9.243-33.57-31.741-33.671-61.959-0.254-123.918-0.203-185.928-0.203-165.106 0-330.211 0.203-495.317 0-13.763 0-24.022 4.469-30.675 16.252-5.129 9.040-4.164 18.181 1.32 26.866 6.196 9.7 15.439 13.103 26.612 13.103 94.157-0.051 188.315 0 282.472 0 19.807-0.051 39.715-0.051 59.572-0.051zM678.553 268.954c-114.015 0-228.030-0.051-342.044 0.051-25.596 0-38.801 19.248-27.729 40.172 6.044 11.376 16.505 14.322 28.694 14.271 82.781-0.051 165.613 0.051 248.395 0.051 144.791 0 289.532-0.051 434.323-0.102 17.674 0 29.151-8.227 31.335-22.244 2.895-18.486-10.259-32.605-29.507-32.503-114.472 0.66-228.944 0.305-343.466 0.305zM678.045 184.496c108.835 0 217.618 0 326.351 0 6.145 0 12.341 0.102 18.435-0.102 17.572-0.508 28.796-10.716 28.999-26.206 0.152-16.658-10.767-27.882-28.643-28.034-41.594-0.305-83.238-0.203-124.832-0.203-186.334 0-372.719 0.102-559.053-0.051-13.255 0-24.276 2.844-31.132 15.185-5.383 9.853-3.961 19.096 2.133 27.983 6.247 9.192 15.134 11.579 25.799 11.528 99.795-0.203 199.64-0.203 299.435-0.203 14.169 0 28.389 0 42.559 0-0.051 0.051-0.051 0.051-0.051 0.102zM457.938 544.925c-39.766 0-79.48-0.102-119.246 0.051-20.721 0.102-33.265 10.106-33.874 26.51-0.559 16.81 12.341 29.253 33.011 29.354 79.48 0.457 158.96 0.559 238.441 0.152 21.584-0.102 33.214-11.63 32.554-29.202-0.609-16.759-12.239-26.815-31.741-26.917-39.715-0.102-79.48-0.051-119.195-0.051 0.051 0.051 0.051 0.102 0.051 0.102zM454.993 683.927c-39.715 0-79.429-0.051-119.144 0-18.689 0.102-31.132 11.275-31.030 27.424 0.102 16.404 12.189 26.866 31.437 26.917 80.394 0.051 160.738 0.051 241.082 0 19.756 0 31.081-9.802 31.335-26.561 0.254-17.47-11.325-27.628-31.741-27.678-40.629-0.152-81.309-0.102-121.937-0.102z" horiz-adv-x="1219" />
<glyph unicode="&#xe612;" d="M20.454 546.928l206.037-99.277v-165.179c0-13.869 7.982-26.59 20.504-32.627l394.115-189.824c4.889-2.345 10.277-3.542 15.665-3.542h66.251c5.388 0 10.776 1.197 15.665 3.542l393.017 189.325c7.633 3.692 13.669 9.878 17.261 17.61 0.499 1.048 0.948 2.245 1.397 3.243 1.946 4.49 2.894 9.379 2.894 14.218v163.233l56.174 27.089v-224.047c-12.123-8.082-21.552-20.205-26.042-35.021l-31.978-104.166c-3.941-12.921-3.841-26.441 0.299-39.212l29.633-91.395c8.481-25.992 32.527-44.151 59.965-44.949 0.2 0 0.349 0 0.549 0h0.898c0.2 0 0.399 0 0.599 0 26.939 0 50.686 16.164 60.514 41.207l34.323 87.054c5.238 13.42 5.937 28.336 1.896 42.205l-31.978 108.556c-4.44 15.216-13.919 27.588-26.291 35.82v258.819l78.025 37.566c12.522 6.036 20.504 18.708 20.504 32.627v28.835c0 13.869-7.982 26.54-20.504 32.577l-654.231 315.192c-9.928 4.789-21.502 4.789-31.38 0l-653.782-314.943c-12.472-5.987-20.454-18.658-20.454-32.527v-29.384c0-13.869 7.982-26.59 20.454-32.627zM1244.056 22.456l-22.749 69.993 24.246 79.023 24.495-83.063-25.992-65.952zM1080.972 305.221l-366.227-176.404h-49.688l-366.227 176.404v107.608l375.357-180.844c4.989-2.345 10.377-3.492 15.715-3.492s10.726 1.147 15.715 3.492l375.357 180.844v-107.608zM689.95 883.671l600.85-289.45-184.536-88.9c-1.646-0.549-3.193-1.098-4.789-1.896l-411.576-198.255-411.526 198.305c-1.596 0.748-3.143 1.297-4.789 1.896l-184.536 88.85 600.9 289.45z" horiz-adv-x="1380" />
<glyph unicode="&#xe613;" d="M691.487 320.492c59.843 67.912 96.502 157.286 96.502 255.508 0 212.091-169.411 384-378.47 384-208.978 0-378.429-171.909-378.429-384 0-98.222 36.7-187.597 96.502-255.508-59.924-105.964-127.59-225.649-127.59-225.649l166.011-24.535 103.506-134.308c0 0 77.455 136.97 140.001 247.562 62.587-110.592 140.042-247.562 140.042-247.562l103.506 134.308 166.052 24.535c0 0-67.707 119.685-127.631 225.649zM254.157 32.338l-50.012 107.192-113.132-7.619c0 0 38.912 71.311 79.79 146.227 49.152-40.632 108.667-68.649 173.793-80.118-44.483-81.51-90.44-165.683-90.44-165.683zM94.167 576c0 176.701 141.189 320.020 315.351 320.020 174.203 0 315.392-143.278 315.392-320.020s-141.189-320.020-315.392-320.020c-174.162 0-315.351 143.319-315.351 320.020zM614.973 139.53l-50.053-107.192c0 0-45.957 84.214-90.44 165.724 65.126 11.469 124.6 39.485 173.752 80.118 40.878-74.916 79.79-146.227 79.79-146.227l-113.050 7.578zM409.518 800.010c-121.938 0-220.733-100.27-220.733-224.010 0-123.699 98.796-224.010 220.733-224.010 121.979 0 220.815 100.311 220.815 224.010 0 123.74-98.836 224.010-220.815 224.010zM409.518 416.010c-87.040 0-157.696 71.639-157.696 159.99s70.656 159.99 157.696 159.99c87.122 0 157.737-71.639 157.737-159.99s-70.615-159.99-157.737-159.99z" horiz-adv-x="819" />
<glyph unicode="&#xe614;" d="M612.259 192h-386.7c-17.78 0-32.209-14.383-32.209-32.023 0-17.687 14.476-32.023 32.209-32.023h386.7c17.827 0 32.163 14.336 32.163 32.023 0 17.641-14.336 32.023-32.163 32.023zM741.143 799.977h-64.465c0 35.375-28.905 64-64.465 64h-32.163v32.023c0 35.375-28.905 64-64.465 64h-193.35c-35.607 0-64.419-28.625-64.419-64v-32.023h-32.256c-35.607 0-64.465-28.625-64.465-64h-64.372c-53.481 0-96.721-42.961-96.721-95.977v-672.023c0-52.969 43.241-95.977 96.721-95.977h644.468c53.341 0 96.628 43.008 96.628 95.977v672.023c0 53.015-43.287 95.977-96.675 95.977zM273.873 799.977h48.361v32.023c0 35.375 28.812 64 64.465 64h64.465c35.561 0 64.465-28.625 64.465-64v-32.023h48.268c26.717 0 48.361-21.504 48.361-47.988s-21.644-47.988-48.361-47.988h-289.978c-26.671 0-48.314 21.504-48.314 47.988s21.597 47.988 48.268 47.988zM773.353 64c0-35.375-28.812-64-64.465-64h-580.003c-35.607 0-64.465 28.625-64.465 64v607.977c0 35.375 28.858 64 64.465 64h32.209v-31.977c0-35.375 28.858-64 64.465-64h386.7c39.191 0 53.108 33.28 63.069 64.931 3.444 11.078 1.35 21.923 1.35 31.092h32.163c35.654 0 64.465-28.625 64.465-64v-608.023zM612.259 351.977h-386.7c-17.78 0-32.209-14.383-32.209-32.023 0-17.687 14.476-32.023 32.209-32.023h386.7c17.827 0 32.163 14.336 32.163 32.023s-14.336 32.023-32.163 32.023zM612.259 512h-386.7c-17.78 0-32.209-14.383-32.209-32.023 0-17.687 14.476-32.023 32.209-32.023h386.7c17.827 0 32.163 14.336 32.163 32.023 0 17.641-14.336 32.023-32.163 32.023z" horiz-adv-x="838" />
<glyph unicode="&#xe615;" d="M613.212 672.784h-258.195v-31.964h258.195v31.964zM710.035 608.752h-355.018v-32.068h355.018v32.068zM999.575 593.88c0.258 0.361 0.568 0.723 0.878 1.084l-129.046 106.325v131.731h-159.822l-127.445 105.034c-37.645 28.866-91.711 30.105-131.524-1.291l-126.98-103.743h-131.989v-107.874l-159.668-130.388c-20.707-13.116-33.978-37.593-33.978-82.106v-480.552c0-53.085 43.325-96.1 96.823-96.1h839.133c53.446 0 96.823 43.015 96.823 96.1v480.552c0 43.738-13.013 67.854-33.204 81.228zM871.407 616.498l61.657-51.381-23.702-20.397h-5.68c1.756 0 3.357-0.413 5.112-0.516l-37.387-32.171v104.466zM493.926 889.048c7.281 5.732 15.853 8.727 24.838 8.727 9.243 0 18.383-3.202 24.528-7.797l68.267-56.958h-185.59l67.957 56.028zM258.195 768.936h548.664v-312.467l-263.565-226.695c-6.093-4.699-15.285-7.797-24.528-7.797-9.037 0-17.609 2.995-24.838 8.675l-235.732 213.32v324.964zM193.646 641.646v-139.27l-80.66 72.863 80.66 66.408zM67.647 45.578c-1.807 5.938-3.098 12.084-3.098 18.538v416.52c0 15.182 5.577 29.021 14.459 39.969l260.312-235.422-271.672-239.605zM903.681 0.084h-774.584c-4.648 0-9.14 0.516-13.529 1.394l272.086 239.914-0.516 0.568 65.478-59.178c39.814-31.551 93.88-30.312 131.576-1.343l65.272 56.183 267.799-236.093c-4.441-0.93-8.934-1.446-13.581-1.446zM968.23 64.116c0-6.455-1.239-12.6-3.098-18.538l-266.147 234.699 263.462 226.643c3.615-8.004 5.784-16.834 5.784-26.284v-416.52zM677.761 544.72h-322.743v-32.068h322.743v32.068z" horiz-adv-x="1033" />
</font>
</defs>
</svg>
